<svg xmlns="http://www.w3.org/2000/svg" width="32" height="32" fill="none">
  <path fill="url(#a)" d="M29.55 16a14 14 0 1 1-28 0 14 14 0 0 1 28 0Z"/>
  <path fill="url(#b)" d="M29.55 16a14 14 0 1 1-28 0 14 14 0 0 1 28 0Z"/>
  <path fill="url(#c)" d="M29.55 16a14 14 0 1 1-28 0 14 14 0 0 1 28 0Z"/>
  <path fill="url(#d)" d="M29.55 16a14 14 0 1 1-28 0 14 14 0 0 1 28 0Z"/>
  <path fill="url(#e)" d="M29.55 16a14 14 0 1 1-28 0 14 14 0 0 1 28 0Z"/>
  <defs>
    <radialGradient id="a" cx="0" cy="0" r="1" gradientTransform="rotate(130 9.83 9.89) scale(27.81)" gradientUnits="userSpaceOnUse">
      <stop stop-color="#645B70"/>
      <stop offset=".66" stop-color="#33293D"/>
    </radialGradient>
    <radialGradient id="c" cx="0" cy="0" r="1" gradientTransform="matrix(-9.48 8.75 -8.08 -8.75 24.23 10.75)" gradientUnits="userSpaceOnUse">
      <stop offset=".11" stop-color="#6A6571"/>
      <stop offset="1" stop-color="#49474C" stop-opacity="0"/>
    </radialGradient>
    <radialGradient id="d" cx="0" cy="0" r="1" gradientTransform="matrix(-19.25 0 0 -20 20.04 16)" gradientUnits="userSpaceOnUse">
      <stop offset=".62" stop-color="#434344" stop-opacity="0"/>
      <stop offset=".95" stop-color="#8C8B8D"/>
    </radialGradient>
    <radialGradient id="e" cx="0" cy="0" r="1" gradientTransform="matrix(0 21.88 -24.3 0 15.55 9)" gradientUnits="userSpaceOnUse">
      <stop offset=".85" stop-color="#352343" stop-opacity="0"/>
      <stop offset="1" stop-color="#50405F"/>
    </radialGradient>
    <linearGradient id="b" x1="15.55" x2="15.55" y1="2" y2="8.5" gradientUnits="userSpaceOnUse">
      <stop stop-color="#554A63"/>
      <stop offset="1" stop-color="#554A63" stop-opacity="0"/>
    </linearGradient>
  </defs>
</svg>